<svg width="983" height="1520" viewBox="0 0 983 1520" fill="none" xmlns="http://www.w3.org/2000/svg">
<g opacity="0.06">
<path d="M57.2809 1118.75L185.824 1106.91C199.153 1105.67 211.756 1111.62 218.756 1122.65L286.062 1228.06C293.062 1239.09 293.415 1253.06 287.086 1265.34L225.849 1382.58C219.52 1394.86 207.27 1402.88 193.941 1404.12L65.3975 1415.96C52.0682 1417.21 39.4655 1411.26 32.4652 1400.23L-34.8403 1294.82C-41.8407 1283.78 -42.1937 1269.82 -35.8648 1257.54L25.373 1140.29C31.8112 1128.4 43.9516 1120 57.2809 1118.75ZM-20.8521 1258.45C-26.4812 1269.43 -26.0668 1282.12 -20.0329 1292.01L40.3816 1386.77C46.8048 1396.53 57.772 1401.99 69.8243 1400.77L185.677 1390.16C197.729 1388.94 208.671 1381.58 214.3 1370.6L269.349 1265.37C274.978 1254.38 274.564 1241.7 268.53 1231.8L208.115 1137.05C201.692 1127.29 190.725 1121.83 178.673 1123.05L63.0695 1133.78C51.0172 1135 40.0751 1142.36 34.446 1153.35L-20.8521 1258.45Z" fill="#FEF6F3"/>
<path d="M-88.9503 91.4533C-97.195 90.3056 -105.812 91.6029 -113.275 95.4483L-214.422 148.972C-228.569 156.394 -238.798 175.303 -236.733 190.8L-222.168 299.666C-220.103 315.163 -205.587 329.3 -190.235 331.358L-80.5763 345.21C-64.8351 347.133 -46.0922 337.068 -38.3852 322.822L15.2049 222.589C22.9119 208.342 20.3145 187.976 9.3376 177.246L-67.3297 101.237C-72.6934 95.9347 -80.7055 92.601 -88.9503 91.4533ZM-86.5567 78.8347C-75.2573 80.1888 -65.1407 84.8996 -58.202 91.9734L18.4654 167.982C33.3404 182.627 36.6579 209.271 26.2885 228.439L-27.3017 328.672C-37.4217 347.964 -62.1787 360.952 -83.0007 358.471L-192.66 344.618C-213.731 342.013 -232.255 323.578 -234.821 302.57L-249.137 193.829C-251.953 172.696 -238.781 148.347 -219.648 138.148L-118.502 84.6239C-109.31 79.338 -97.8561 77.4806 -86.5567 78.8347Z" fill="#FEF6F3"/>
<path d="M246.03 200.713L264.087 209.016L205.347 326.61L187.29 318.306L246.03 200.713Z" fill="#FEF6F3"/>
<path d="M249.29 212.427C240.741 208.191 237.713 197.555 242.528 188.672C247.343 179.789 258.177 176.022 266.726 180.258C275.276 184.495 278.303 195.131 273.488 204.014C268.674 212.897 257.84 216.664 249.29 212.427Z" fill="#FEF6F3"/>
<path d="M-1.16842 1526.44L-19.0428 1517.73L42.3223 1401.45L60.1967 1410.17L-1.16842 1526.44Z" fill="#FEF6F3"/>
<path d="M417.257 1254.53L414.099 1279.82L284.764 1268.07L287.921 1242.78L417.257 1254.53Z" fill="#FEF6F3"/>
<path d="M416.457 1286.31C407.921 1282.1 404.928 1271.48 409.771 1262.58C414.615 1253.68 425.461 1249.88 433.997 1254.09C442.533 1258.3 445.526 1268.93 440.682 1277.83C435.838 1286.72 424.992 1290.52 416.457 1286.31Z" fill="#FEF6F3"/>
<path d="M292.397 1495.29L272.391 1508.63L201.658 1401.67L221.664 1388.33L292.397 1495.29Z" fill="#FEF6F3"/>
<path d="M279.576 1526.7C271.041 1522.49 268.047 1511.86 272.89 1502.96C277.733 1494.06 288.579 1490.26 297.115 1494.47C305.65 1498.68 308.644 1509.31 303.801 1518.21C298.958 1527.11 288.112 1530.91 279.576 1526.7Z" fill="#FEF6F3"/>
</g>
</svg>
